# xmcd CD database file
#
# Track frame offsets:
#	150
#	23232
#	51658
#	75012
#	107249
#	136128
#	162536
#	189528
#	217723
#	256216
#	285265
#	308170
#
# Disc length: 4558 seconds
#
# Revision: 1
# Processed by: cddbd v1.5.2PL0 Copyright (c) Steve Scherf et al.
# Submitted via: CDex 1.70beta2
#
DISCID=9a11cc0c
DTITLE=Enigma - The Platinum Collection (The Remix Collection) Disc 2
DYEAR=2009
DGENRE=New Age
TTITLE0=Sadeness (U.S. Violent Mix)
TTITLE1=Mea Culpa (Fading Shades Mix)
TTITLE2=Principles Of Lust (Everlasting Lust Mix)
TTITLE3=Return To Innocence (Long and Alive Version)
TTITLE4=Age Of Loneliness (Enigmatic Club Mix)
TTITLE5=Out From The Deep (Trance Mix)
TTITLE6=T.N.T. For The Brain (Midnight Man Mix)
TTITLE7=Gravity Of Love (Judgement Day Club Mix)
TTITLE8=Push The Limits (ATB Remix)
TTITLE9=Voyageur (Club Mix)
TTITLE10=Boum-Boum (Chicane Club Edit)
TTITLE11=Dreaming Of Andromeda (Jean F. Cochois Remix)
EXTD=YEAR: 2009
EXTT0=
EXTT1=
EXTT2=
EXTT3=
EXTT4=
EXTT5=
EXTT6=
EXTT7=
EXTT8=
EXTT9=
EXTT10=
EXTT11=
PLAYORDER=
